<svg xmlns="http://www.w3.org/2000/svg" viewBox="0 0 752.67 110.7"><defs><style>.cls-1{fill:#a5212e;}.cls-2{fill:#fff;}</style></defs><title>Mind the Shake</title><g id="Layer_2" data-name="Layer 2"><g id="Layer_1-2" data-name="Layer 1"><path class="cls-1" d="M635.66,18.82l-414,.88-.46,6.91-6.61-9.92-83.71,4.55L149.7,0,12.18,10,0,17.72l108.67,1.22L86.29,45.23l73.45,0L136.67,84.7l468.82,17a3.27,3.27,0,0,0,3.32-3.21l30.06-76.33A3.27,3.27,0,0,0,635.66,18.82Z"/><path class="cls-2" d="M209.51,47.64h4.92l1.21,20.76h-4.77l-.51-8.47-2.88,8.47H202.7l-3-8.81-.56,8.81h-4.8l1.32-20.76h4.92l4.55,13Z"/><path class="cls-2" d="M223.34,68.4h-4.78V47.64h4.78Z"/><path class="cls-2" d="M239.09,47.67h4.77V68.4h-5.17l-6.78-12.09V68.4h-4.77V47.72h5.2l6.75,12.06Z"/><path class="cls-2" d="M252,47.58a10.3,10.3,0,0,1,3.88,1,10.58,10.58,0,0,1,5.29,5.57,10.38,10.38,0,0,1,.77,4,10,10,0,0,1-.76,3.91A10.18,10.18,0,0,1,256,67.45a10.51,10.51,0,0,1-3.93,1h-4.77V47.55H252Zm0,16a6.13,6.13,0,0,0,2.05-.58,6,6,0,0,0,1.64-1.19,5.27,5.27,0,0,0,1.08-1.68,5.18,5.18,0,0,0,.4-2,5.58,5.58,0,0,0-.4-2.11,5.83,5.83,0,0,0-1.1-1.78A6,6,0,0,0,254.07,53a5.38,5.38,0,0,0-2-.6Z"/><path class="cls-2" d="M282.6,47.58v4.78h-4v16h-4.77v-16h-4V47.58Z"/><path class="cls-2" d="M295.48,47.67h4.78V68.4h-4.78V60.58h-6V68.4h-4.77V47.67h4.77V55.8h6Z"/><path class="cls-2" d="M317,52.44h-8.53v3.14h6.92v4.77h-6.92v3.28H317V68.4H303.71V47.7l13.31,0Z"/><path class="cls-2" d="M333.26,68.8a7.3,7.3,0,0,1-2-.27,6.56,6.56,0,0,1-1.85-.84,6.93,6.93,0,0,1-2.38-2.55,7.17,7.17,0,0,1-.84-3.43H331a2,2,0,0,0,.37,1.31,2.48,2.48,0,0,0,.65.63,2.1,2.1,0,0,0,1.1.37,2.5,2.5,0,0,0,1.16-.22,2,2,0,0,0,.63-.43,2.17,2.17,0,0,0,.37-.49,1.54,1.54,0,0,0,.16-.47c0-.15,0-.27,0-.37s0-.21,0-.36a1.69,1.69,0,0,0-.16-.48,1.84,1.84,0,0,0-.37-.5,2.4,2.4,0,0,0-.63-.43,5.84,5.84,0,0,0-.67-.26l-.75-.25c-.47-.15-1-.32-1.46-.51a8.37,8.37,0,0,1-1.53-.76,6.21,6.21,0,0,1-1.67-1.56,6.28,6.28,0,0,1-1-2,6.36,6.36,0,0,1-.2-2.22,5.93,5.93,0,0,1,.64-2.19,6.2,6.2,0,0,1,1.27-1.67,6.1,6.1,0,0,1,3.7-1.61,6.72,6.72,0,0,1,2.17.2,6.38,6.38,0,0,1,1.95.81,6.14,6.14,0,0,1,1.5,1.32,5.94,5.94,0,0,1,1,1.74,6.14,6.14,0,0,1,.33,2h-4.75a1,1,0,0,0-.41-.91,2.85,2.85,0,0,0-.72-.34l-.26,0a1.29,1.29,0,0,0-.48,0,1.89,1.89,0,0,0-.56.2,1.2,1.2,0,0,0-.45.49,1.25,1.25,0,0,0-.08,1,1.35,1.35,0,0,0,.56.78,8,8,0,0,0,.88.41c.32.12.66.24,1,.35s.64.2,1,.31a9.06,9.06,0,0,1,1,.4,6.63,6.63,0,0,1,2.9,2.48,6.75,6.75,0,0,1,0,7.26,6.72,6.72,0,0,1-2.9,2.49,7,7,0,0,1-1.49.49A8,8,0,0,1,333.26,68.8Z"/><path class="cls-2" d="M353.73,47.67h4.77V68.4h-4.77V60.58h-6V68.4H343V47.67h4.77V55.8h6Z"/><path class="cls-2" d="M373.44,68.4l-.82-2.51h-6.53l-.84,2.51h-5.06l7.06-20.73h4.52l6.7,20.73Zm-5.71-7.29h3.36l-1.63-5Z"/><path class="cls-2" d="M398.67,47.64,388,58,398.67,68.4h-6.89l-6.67-6.52V68.4h-4.77V47.64h4.77v6.55l6.69-6.55Z"/><path class="cls-2" d="M413.2,52.44h-8.53v3.14h6.92v4.77h-6.92v3.28h8.53V68.4H399.9V47.7l13.3,0Z"/><path class="cls-2" d="M415.17,71.42l2.29-5.59h4.06l-2.28,5.59Z"/><path class="cls-2" d="M444.74,56.4a8.51,8.51,0,0,1-.66,3.34,8.75,8.75,0,0,1-4.56,4.63,8.35,8.35,0,0,1-3.34.73v3.3h-4.77V47.67h4.77a8.35,8.35,0,0,1,3.34.73,9.1,9.1,0,0,1,2.72,1.89,8.84,8.84,0,0,1,1.84,2.76A8.52,8.52,0,0,1,444.74,56.4Zm-8.56,3.92a4,4,0,0,0,1.49-.35,4.14,4.14,0,0,0,1.2-.85,3.89,3.89,0,0,0,.8-1.24,3.9,3.9,0,0,0,0-3,3.85,3.85,0,0,0-.8-1.23,4.17,4.17,0,0,0-1.2-.86,4,4,0,0,0-1.49-.35Z"/><path class="cls-2" d="M452.5,68.4h-4.78V47.64h4.78Z"/><path class="cls-2" d="M468.64,68.4H456.3V47.64h4.77v16h7.57Z"/><path class="cls-2" d="M475.55,68.4h-4.78V47.64h4.78Z"/><path class="cls-2" d="M492.68,56.4a8.51,8.51,0,0,1-.66,3.34,8.67,8.67,0,0,1-1.84,2.76,8.86,8.86,0,0,1-2.72,1.87,8.35,8.35,0,0,1-3.34.73v3.3h-4.77V47.67h4.77a8.35,8.35,0,0,1,3.34.73,9.1,9.1,0,0,1,2.72,1.89A8.67,8.67,0,0,1,492,53.05,8.52,8.52,0,0,1,492.68,56.4Zm-8.56,3.92a4,4,0,0,0,1.49-.35,4.14,4.14,0,0,0,1.2-.85,3.89,3.89,0,0,0,.8-1.24,3.9,3.9,0,0,0,0-3,3.85,3.85,0,0,0-.8-1.23,4.17,4.17,0,0,0-1.2-.86,4,4,0,0,0-1.49-.35Z"/><path class="cls-2" d="M500.44,68.4h-4.78V47.64h4.78Z"/><path class="cls-2" d="M516.19,47.67H521V68.4h-5.17L509,56.31V68.4h-4.77V47.72h5.19l6.76,12.06Z"/><path class="cls-2" d="M536,68.4l-.82-2.51h-6.53l-.84,2.51h-5.06l7.06-20.73h4.52L541,68.4Zm-5.71-7.29h3.36l-1.63-5Z"/><path class="cls-2" d="M548.69,68.8a7.3,7.3,0,0,1-2-.27,6.56,6.56,0,0,1-1.85-.84,6.93,6.93,0,0,1-2.38-2.55,7.17,7.17,0,0,1-.84-3.43h4.77A2,2,0,0,0,546.8,63a2.48,2.48,0,0,0,.65.63,2.1,2.1,0,0,0,1.1.37,2.5,2.5,0,0,0,1.16-.22,2,2,0,0,0,.63-.43,2.52,2.52,0,0,0,.37-.49,1.28,1.28,0,0,0,.15-.47,2.24,2.24,0,0,0,0-.73,1.39,1.39,0,0,0-.15-.48,2.08,2.08,0,0,0-.37-.5,2.4,2.4,0,0,0-.63-.43A5.84,5.84,0,0,0,549,60l-.75-.25c-.47-.15-1-.32-1.46-.51a8.37,8.37,0,0,1-1.53-.76,6.21,6.21,0,0,1-1.67-1.56,6.28,6.28,0,0,1-1-2,6.13,6.13,0,0,1-.2-2.22,5.93,5.93,0,0,1,.64-2.19,6.2,6.2,0,0,1,1.27-1.67,6.1,6.1,0,0,1,3.7-1.61,6.72,6.72,0,0,1,2.17.2,6.39,6.39,0,0,1,3.45,2.13,5.94,5.94,0,0,1,1,1.74,6.14,6.14,0,0,1,.33,2h-4.75a1,1,0,0,0-.41-.91,2.85,2.85,0,0,0-.72-.34l-.26,0a1.29,1.29,0,0,0-.48,0,1.89,1.89,0,0,0-.56.2,1.13,1.13,0,0,0-.45.49,1.25,1.25,0,0,0-.08,1,1.35,1.35,0,0,0,.56.78,8,8,0,0,0,.88.41c.32.12.66.24,1,.35s.65.2,1,.31a9.06,9.06,0,0,1,1,.4,6.63,6.63,0,0,1,2.9,2.48,6.75,6.75,0,0,1,0,7.26,6.72,6.72,0,0,1-2.9,2.49,6.92,6.92,0,0,1-1.5.49A7.77,7.77,0,0,1,548.69,68.8Z"/><polyline class="cls-1" points="583.67 92.7 605.67 75.7 748.67 93.7 752.67 110.7 583.7 100.48"/></g></g></svg>