<svg xmlns="http://www.w3.org/2000/svg" width="198.77" height="139.64" viewBox="0 0 198.77 139.64"><defs><style>.a{fill:#fff;}.b{fill:#ec2224;}.c{fill:#2f2f24;}</style></defs><title>moodlearning 200x200 v4</title><rect class="a" width="198.77" height="139.64"/><polygon class="b" points="52.05 13.34 82.67 13.34 27.83 92.4 27.83 76.53 62.35 23.92 44.81 23.92 52.05 13.34"/><polygon class="b" points="72.73 40.59 85.77 21.22 114.26 89.94 102.9 85.84 84.09 39.1 76.45 50.08 72.73 40.59"/><polygon class="b" points="147.48 51.41 154.82 40.5 170.86 79.19 164.47 76.89 153.88 50.57 149.58 56.75 147.48 51.41"/><polygon class="b" points="115.31 58.95 110.66 65.18 118.62 82.6 152.05 33.4 142.35 35.3 119.57 68.17 115.31 58.95"/><path class="c" d="M36.6,156.1a.47.47,0,0,1-.13.24.81.81,0,0,1-.31.16,2.47,2.47,0,0,1-.55.1,6.3,6.3,0,0,1-.82,0,6.24,6.24,0,0,1-.81,0,1.67,1.67,0,0,1-.49-.1.46.46,0,0,1-.24-.16.33.33,0,0,1,0-.24l1.44-7.17.09-.61a4.08,4.08,0,0,0,0-.61,2,2,0,0,0-.23-1,.91.91,0,0,0-.84-.39,2.15,2.15,0,0,0-1.11.35,4.61,4.61,0,0,0-1.11.95A6.55,6.55,0,0,0,30,150.69L28.9,156.1a.46.46,0,0,1-.12.24.87.87,0,0,1-.32.16,2.27,2.27,0,0,1-.54.1,6.47,6.47,0,0,1-.83,0,5.82,5.82,0,0,1-.79,0,1.67,1.67,0,0,1-.49-.1.46.46,0,0,1-.24-.16.33.33,0,0,1,0-.24L27,148.93a4.27,4.27,0,0,0,.11-.64,4.54,4.54,0,0,0,0-.63,1.76,1.76,0,0,0-.24-1,.91.91,0,0,0-.84-.39,2.21,2.21,0,0,0-1.11.35,4.77,4.77,0,0,0-1.1.95,6.55,6.55,0,0,0-1.52,3.09l-1.09,5.41a.47.47,0,0,1-.13.24.81.81,0,0,1-.31.16,2.27,2.27,0,0,1-.54.1,6.4,6.4,0,0,1-.82,0,6,6,0,0,1-.81,0,1.74,1.74,0,0,1-.49-.1.46.46,0,0,1-.24-.16.47.47,0,0,1,0-.24l2.4-12a.46.46,0,0,1,.12-.23.59.59,0,0,1,.27-.16,2.88,2.88,0,0,1,.47-.1,6.73,6.73,0,0,1,.69,0,6.06,6.06,0,0,1,.67,0,2,2,0,0,1,.41.1.37.37,0,0,1,.2.16.42.42,0,0,1,0,.23l-.39,2a5,5,0,0,1,.75-1,6.47,6.47,0,0,1,1.06-.87,6.29,6.29,0,0,1,1.3-.64,4.27,4.27,0,0,1,1.46-.25,3.91,3.91,0,0,1,1.35.21,2.51,2.51,0,0,1,1.5,1.44,3.71,3.71,0,0,1,.24,1.07,6.07,6.07,0,0,1,.79-1,6.55,6.55,0,0,1,1.07-.87,6.46,6.46,0,0,1,1.29-.64,4.56,4.56,0,0,1,3,0,2.63,2.63,0,0,1,1,.73,2.72,2.72,0,0,1,.56,1.08,4.89,4.89,0,0,1,.18,1.35,7.42,7.42,0,0,1-.06.94,8.69,8.69,0,0,1-.16,1Z" transform="translate(-0.43 -35.15)"/><path class="c" d="M53.1,148.17a11.39,11.39,0,0,1-.18,2,10,10,0,0,1-.57,2,8.26,8.26,0,0,1-1,1.82,7.2,7.2,0,0,1-1.46,1.51,7,7,0,0,1-2,1,7.64,7.64,0,0,1-2.48.38,7.74,7.74,0,0,1-2.34-.32,4.28,4.28,0,0,1-1.64-.92,3.7,3.7,0,0,1-1-1.51,5.83,5.83,0,0,1-.32-2,11.39,11.39,0,0,1,.18-2,10,10,0,0,1,.57-2,9.07,9.07,0,0,1,1-1.83,6.49,6.49,0,0,1,1.46-1.5,6.69,6.69,0,0,1,2-1,7.64,7.64,0,0,1,2.48-.38,7.74,7.74,0,0,1,2.34.32,4.3,4.3,0,0,1,1.64.92,3.84,3.84,0,0,1,1,1.5A6.17,6.17,0,0,1,53.1,148.17Zm-3.49.22a3.75,3.75,0,0,0-.11-1,1.8,1.8,0,0,0-.38-.74,1.55,1.55,0,0,0-.67-.46,3,3,0,0,0-2.2.1,3.29,3.29,0,0,0-1,.7,4.89,4.89,0,0,0-.73,1,6.28,6.28,0,0,0-.51,1.22,8.52,8.52,0,0,0-.29,1.31,8,8,0,0,0-.1,1.27,3.81,3.81,0,0,0,.12,1,1.72,1.72,0,0,0,.37.74,1.7,1.7,0,0,0,.67.47,2.91,2.91,0,0,0,1,.16,2.79,2.79,0,0,0,1.21-.26,3.42,3.42,0,0,0,.95-.71,4.65,4.65,0,0,0,.74-1,7,7,0,0,0,.5-1.23,7.52,7.52,0,0,0,.3-1.31A9.11,9.11,0,0,0,49.61,148.39Z" transform="translate(-0.43 -35.15)"/><path class="c" d="M67.58,148.17a11.42,11.42,0,0,1-.19,2,10,10,0,0,1-.57,2,8.22,8.22,0,0,1-1,1.82,7.46,7.46,0,0,1-1.46,1.51,6.87,6.87,0,0,1-2,1,8.45,8.45,0,0,1-4.81.06,4.4,4.4,0,0,1-1.65-.92,3.78,3.78,0,0,1-1-1.51,5.82,5.82,0,0,1-.33-2,11.39,11.39,0,0,1,.18-2,10,10,0,0,1,.57-2,9.59,9.59,0,0,1,1-1.83,6.8,6.8,0,0,1,3.41-2.52,8.49,8.49,0,0,1,4.82-.06,4.27,4.27,0,0,1,1.65.92,3.82,3.82,0,0,1,1,1.5A5.92,5.92,0,0,1,67.58,148.17Zm-3.49.22a4.22,4.22,0,0,0-.11-1,1.8,1.8,0,0,0-.38-.74,1.61,1.61,0,0,0-.67-.46,2.65,2.65,0,0,0-1-.16,2.61,2.61,0,0,0-1.2.26,3.29,3.29,0,0,0-1,.7,4.55,4.55,0,0,0-.73,1,6.28,6.28,0,0,0-.51,1.22,7.52,7.52,0,0,0-.3,1.31,9.37,9.37,0,0,0-.09,1.27,4.31,4.31,0,0,0,.11,1,1.74,1.74,0,0,0,.38.74,1.63,1.63,0,0,0,.67.47,2.87,2.87,0,0,0,1,.16,2.75,2.75,0,0,0,1.2-.26,3.33,3.33,0,0,0,1-.71,4.61,4.61,0,0,0,.73-1A6.37,6.37,0,0,0,63.7,151a8.56,8.56,0,0,0,.3-1.31A9.11,9.11,0,0,0,64.09,148.39Z" transform="translate(-0.43 -35.15)"/><path class="c" d="M80,156.12a.54.54,0,0,1-.42.4,4.14,4.14,0,0,1-1.18.12,6.13,6.13,0,0,1-.68,0,1.67,1.67,0,0,1-.42-.09.33.33,0,0,1-.21-.16.38.38,0,0,1,0-.24l.36-1.92a3.6,3.6,0,0,1-.64.9,5.65,5.65,0,0,1-1.05.87,5.87,5.87,0,0,1-1.33.65,4.83,4.83,0,0,1-1.51.25,4.09,4.09,0,0,1-1.33-.2,3,3,0,0,1-1-.53,2.88,2.88,0,0,1-.68-.79,4.61,4.61,0,0,1-.43-1,6,6,0,0,1-.23-1.06,9.55,9.55,0,0,1-.06-1.06,11.43,11.43,0,0,1,.16-1.87,10.94,10.94,0,0,1,.5-2,12.34,12.34,0,0,1,.86-1.89,6.91,6.91,0,0,1,1.26-1.61,5.73,5.73,0,0,1,1.67-1.11,5.19,5.19,0,0,1,2.13-.42,4.64,4.64,0,0,1,1,.11,4.71,4.71,0,0,1,.87.31,3.88,3.88,0,0,1,.72.47,4.14,4.14,0,0,1,.55.56l1.27-6.31a.64.64,0,0,1,.12-.25.7.7,0,0,1,.3-.18,2.82,2.82,0,0,1,.54-.11,6.3,6.3,0,0,1,.82,0,6,6,0,0,1,.81,0,2,2,0,0,1,.49.11.44.44,0,0,1,.23.18.43.43,0,0,1,0,.25Zm-1.67-8.38a3.61,3.61,0,0,0-1-1.11,2.27,2.27,0,0,0-1.32-.38,2.05,2.05,0,0,0-1,.26,3.06,3.06,0,0,0-.83.7,4.69,4.69,0,0,0-.65,1,8,8,0,0,0-.45,1.22,11.9,11.9,0,0,0-.28,1.29,8.88,8.88,0,0,0-.09,1.22,2.85,2.85,0,0,0,.33,1.53A1.17,1.17,0,0,0,74,154a2.46,2.46,0,0,0,1.21-.35,4.85,4.85,0,0,0,1.15-1,6.36,6.36,0,0,0,1-1.4,6.74,6.74,0,0,0,.59-1.74Z" transform="translate(-0.43 -35.15)"/><path class="c" d="M93.38,154.19c0,.06,0,.16,0,.3s0,.29-.07.47-.07.36-.12.55A5.3,5.3,0,0,1,93,156a1.38,1.38,0,0,1-.24.38.4.4,0,0,1-.31.15H84.51a1.25,1.25,0,0,1-.4-.06.69.69,0,0,1-.3-.2.93.93,0,0,1-.15-.35,1.47,1.47,0,0,1,0-.51l3.17-15.76a.39.39,0,0,1,.12-.24.73.73,0,0,1,.33-.17,2.36,2.36,0,0,1,.56-.1,7,7,0,0,1,.86,0,6.71,6.71,0,0,1,.85,0,1.91,1.91,0,0,1,.52.1.41.41,0,0,1,.25.17.33.33,0,0,1,0,.24l-2.79,14H93a.27.27,0,0,1,.27.15A1,1,0,0,1,93.38,154.19Z" transform="translate(-0.43 -35.15)"/><path class="c" d="M107.41,146.77a3.48,3.48,0,0,1-.43,1.74,3.78,3.78,0,0,1-1.36,1.33,7.52,7.52,0,0,1-2.33.85,17.26,17.26,0,0,1-3.37.29H98.69a4.44,4.44,0,0,0-.08.61c0,.2,0,.39,0,.56a2.19,2.19,0,0,0,.56,1.63,2.51,2.51,0,0,0,1.81.55,9.53,9.53,0,0,0,1.59-.12,11.28,11.28,0,0,0,1.23-.29c.36-.1.65-.19.88-.28a1.76,1.76,0,0,1,.51-.12.27.27,0,0,1,.23.09.54.54,0,0,1,.07.29c0,.16,0,.33,0,.53s-.07.39-.12.58a3.13,3.13,0,0,1-.19.54,1.06,1.06,0,0,1-.26.39,1.48,1.48,0,0,1-.59.32,7.24,7.24,0,0,1-1,.3,13.62,13.62,0,0,1-1.35.22,12.83,12.83,0,0,1-1.53.09,8.36,8.36,0,0,1-2.25-.27,4.11,4.11,0,0,1-1.6-.82,3.32,3.32,0,0,1-1-1.4,5.6,5.6,0,0,1-.32-2,12,12,0,0,1,.16-1.92,10.53,10.53,0,0,1,.55-2,10.35,10.35,0,0,1,1-1.91,7,7,0,0,1,1.43-1.6,6.57,6.57,0,0,1,1.94-1.1,6.93,6.93,0,0,1,2.5-.42,6.83,6.83,0,0,1,2.1.29,4.25,4.25,0,0,1,1.44.76,3,3,0,0,1,.84,1.09A3.06,3.06,0,0,1,107.41,146.77Zm-3.31.26a1.1,1.1,0,0,0-.42-.89,1.84,1.84,0,0,0-1.23-.36,2.92,2.92,0,0,0-1.2.24,3.18,3.18,0,0,0-.93.65,3.86,3.86,0,0,0-.69,1,6.43,6.43,0,0,0-.46,1.18h1.13a9.08,9.08,0,0,0,1.79-.14,4.12,4.12,0,0,0,1.17-.38,1.64,1.64,0,0,0,.64-.57A1.26,1.26,0,0,0,104.1,147Z" transform="translate(-0.43 -35.15)"/><path class="c" d="M119.54,156.12a.54.54,0,0,1-.42.4,4.14,4.14,0,0,1-1.18.12,6.13,6.13,0,0,1-.68,0,1.78,1.78,0,0,1-.42-.09.33.33,0,0,1-.21-.16.38.38,0,0,1,0-.24l.37-1.92a3.36,3.36,0,0,1-.64.9,5.27,5.27,0,0,1-1,.87,6.37,6.37,0,0,1-1.34.64,4.57,4.57,0,0,1-1.51.26,3.78,3.78,0,0,1-1.78-.38,3.18,3.18,0,0,1-1.14-1,4.34,4.34,0,0,1-.61-1.46,7.87,7.87,0,0,1-.18-1.71,11.26,11.26,0,0,1,.16-1.84,11.83,11.83,0,0,1,.5-2,10.63,10.63,0,0,1,.86-1.92,6.87,6.87,0,0,1,1.25-1.62,5.82,5.82,0,0,1,1.67-1.14,5.24,5.24,0,0,1,2.14-.42,4.18,4.18,0,0,1,2,.46,4.55,4.55,0,0,1,1.5,1.35l.22-1.06c0-.19.18-.32.42-.4a4.22,4.22,0,0,1,1.19-.12,6.32,6.32,0,0,1,.67,0,2.17,2.17,0,0,1,.42.1.39.39,0,0,1,.21.16.35.35,0,0,1,0,.23Zm-1.66-8.4a3.46,3.46,0,0,0-1-1.1,2.34,2.34,0,0,0-1.32-.37,2,2,0,0,0-1,.27,3.1,3.1,0,0,0-.83.71,5.55,5.55,0,0,0-.64,1,9.06,9.06,0,0,0-.45,1.23,9.54,9.54,0,0,0-.27,1.29,8.72,8.72,0,0,0-.09,1.2,4.68,4.68,0,0,0,.06.76,2,2,0,0,0,.22.64,1.24,1.24,0,0,0,.43.45,1.22,1.22,0,0,0,.69.17,2.45,2.45,0,0,0,1.2-.35,4.72,4.72,0,0,0,1.16-1,7,7,0,0,0,.94-1.42,7.16,7.16,0,0,0,.6-1.74Z" transform="translate(-0.43 -35.15)"/><path class="c" d="M132.86,144a3.19,3.19,0,0,1,0,.33c0,.16-.05.35-.08.57s-.08.43-.14.66a5.38,5.38,0,0,1-.18.64,2.15,2.15,0,0,1-.22.48.38.38,0,0,1-.28.19.69.69,0,0,1-.24-.05l-.27-.09-.32-.1a1.62,1.62,0,0,0-.4-.05,1.75,1.75,0,0,0-1,.35,4.71,4.71,0,0,0-1,.92,6.88,6.88,0,0,0-.84,1.33,6.61,6.61,0,0,0-.53,1.59l-1.07,5.37a.47.47,0,0,1-.13.24.76.76,0,0,1-.3.16,2.26,2.26,0,0,1-.55.1,6.3,6.3,0,0,1-.82,0,6,6,0,0,1-.81,0,1.74,1.74,0,0,1-.49-.1.46.46,0,0,1-.24-.16.38.38,0,0,1,0-.24l2.38-12a.46.46,0,0,1,.12-.23.69.69,0,0,1,.28-.16,2.88,2.88,0,0,1,.47-.1,6.73,6.73,0,0,1,.69,0,6.06,6.06,0,0,1,.67,0,2,2,0,0,1,.41.1.33.33,0,0,1,.2.16.35.35,0,0,1,0,.23L127.8,146a6.36,6.36,0,0,1,1.64-1.9,4.47,4.47,0,0,1,1-.56,2.78,2.78,0,0,1,1-.2,2.83,2.83,0,0,1,.41,0l.39.06a2,2,0,0,1,.32.11,1.2,1.2,0,0,1,.23.12A.38.38,0,0,1,132.86,144Z" transform="translate(-0.43 -35.15)"/><path class="c" d="M145.46,146.81c0,.32,0,.63-.06.94s-.1.64-.16,1l-1.49,7.38a.46.46,0,0,1-.12.24.81.81,0,0,1-.31.16,2.27,2.27,0,0,1-.54.1,6.3,6.3,0,0,1-.82,0,6,6,0,0,1-.81,0,1.67,1.67,0,0,1-.49-.1.46.46,0,0,1-.24-.16.33.33,0,0,1,0-.24l1.45-7.17c0-.21.07-.43.1-.66s0-.42,0-.59a1.77,1.77,0,0,0-.25-1,1,1,0,0,0-.86-.39,2.31,2.31,0,0,0-1.15.35,4.46,4.46,0,0,0-1.12.95,6.54,6.54,0,0,0-1,1.39,6.23,6.23,0,0,0-.59,1.7L136,156.1a.56.56,0,0,1-.13.24.81.81,0,0,1-.31.16,2.27,2.27,0,0,1-.54.1,6.5,6.5,0,0,1-.82,0,6,6,0,0,1-.81,0,1.82,1.82,0,0,1-.5-.1.39.39,0,0,1-.23-.16.33.33,0,0,1,0-.24l2.4-12a.55.55,0,0,1,.11-.23.59.59,0,0,1,.27-.16,3.13,3.13,0,0,1,.47-.1,6.73,6.73,0,0,1,.69,0,6.26,6.26,0,0,1,.68,0,2.23,2.23,0,0,1,.41.1.31.31,0,0,1,.19.16.35.35,0,0,1,0,.23l-.39,2a6,6,0,0,1,.75-1,6.63,6.63,0,0,1,1.08-.87,6.54,6.54,0,0,1,1.33-.64,4.44,4.44,0,0,1,1.49-.25,3.89,3.89,0,0,1,1.58.28,2.73,2.73,0,0,1,1,.74,2.85,2.85,0,0,1,.57,1.09A4.78,4.78,0,0,1,145.46,146.81Z" transform="translate(-0.43 -35.15)"/><path class="c" d="M150.44,156.1a.47.47,0,0,1-.13.24.76.76,0,0,1-.3.16,2.26,2.26,0,0,1-.55.1,8.32,8.32,0,0,1-1.63,0,1.74,1.74,0,0,1-.49-.1.46.46,0,0,1-.24-.16.38.38,0,0,1,0-.24l2.37-11.93a.41.41,0,0,1,.13-.23.75.75,0,0,1,.31-.18,2.55,2.55,0,0,1,.53-.11,6.47,6.47,0,0,1,.83,0,6,6,0,0,1,.81,0,2.12,2.12,0,0,1,.49.11.47.47,0,0,1,.24.18.35.35,0,0,1,0,.23Zm3.46-16a3.82,3.82,0,0,1-.25.84,1.49,1.49,0,0,1-.43.55,1.67,1.67,0,0,1-.66.3,5.18,5.18,0,0,1-1,.08,4.44,4.44,0,0,1-.91-.08,1,1,0,0,1-.54-.3.94.94,0,0,1-.21-.55,3,3,0,0,1,.08-.84,3.51,3.51,0,0,1,.26-.81,1.39,1.39,0,0,1,.43-.55,1.51,1.51,0,0,1,.65-.31,4.32,4.32,0,0,1,1-.1,3.85,3.85,0,0,1,.92.1,1,1,0,0,1,.53.31.87.87,0,0,1,.2.55A3.08,3.08,0,0,1,153.9,140.12Z" transform="translate(-0.43 -35.15)"/><path class="c" d="M166.67,146.81a7.3,7.3,0,0,1-.06.94c0,.31-.09.64-.15,1L165,156.1a.47.47,0,0,1-.13.24.69.69,0,0,1-.3.16,2.27,2.27,0,0,1-.54.1,6.3,6.3,0,0,1-.82,0,6,6,0,0,1-.81,0,1.59,1.59,0,0,1-.49-.1.46.46,0,0,1-.24-.16.33.33,0,0,1,0-.24l1.44-7.17a6.49,6.49,0,0,0,.11-.66c0-.22,0-.42,0-.59a1.78,1.78,0,0,0-.26-1,.93.93,0,0,0-.85-.39,2.31,2.31,0,0,0-1.15.35,4.68,4.68,0,0,0-1.13.95,6.9,6.9,0,0,0-.94,1.39,6.23,6.23,0,0,0-.59,1.7l-1.09,5.41a.46.46,0,0,1-.12.24.81.81,0,0,1-.31.16,2.27,2.27,0,0,1-.54.1,6.5,6.5,0,0,1-.82,0,6,6,0,0,1-.81,0,1.82,1.82,0,0,1-.5-.1.39.39,0,0,1-.23-.16.33.33,0,0,1,0-.24l2.4-12a.45.45,0,0,1,.11-.23.59.59,0,0,1,.27-.16,3.13,3.13,0,0,1,.47-.1,6.73,6.73,0,0,1,.69,0,6.26,6.26,0,0,1,.68,0,2.23,2.23,0,0,1,.41.1.31.31,0,0,1,.21.39l-.39,2a6,6,0,0,1,.75-1,6.23,6.23,0,0,1,1.08-.87,6.54,6.54,0,0,1,1.33-.64,4.44,4.44,0,0,1,1.49-.25,3.89,3.89,0,0,1,1.58.28,2.73,2.73,0,0,1,1,.74,3,3,0,0,1,.57,1.09A4.78,4.78,0,0,1,166.67,146.81Z" transform="translate(-0.43 -35.15)"/><path class="c" d="M179.29,156.58a7,7,0,0,1-.75,2.13,4.74,4.74,0,0,1-1.34,1.51,5.78,5.78,0,0,1-2,.92,10.85,10.85,0,0,1-2.77.31,10.46,10.46,0,0,1-2-.18,7,7,0,0,1-1.51-.46.76.76,0,0,1-.3-.24.8.8,0,0,1-.08-.38c0-.05,0-.14,0-.27a3.7,3.7,0,0,1,.06-.41c0-.16.07-.31.11-.48a2.52,2.52,0,0,1,.17-.44,1.38,1.38,0,0,1,.22-.32.35.35,0,0,1,.28-.13,1.05,1.05,0,0,1,.4.11,4.62,4.62,0,0,0,.62.25,6.94,6.94,0,0,0,2.39.36,6.47,6.47,0,0,0,1.22-.1,3.13,3.13,0,0,0,.95-.35,2,2,0,0,0,.65-.62,2.64,2.64,0,0,0,.35-.92c.12-.58.24-1.07.35-1.46s.23-.72.32-1a3.59,3.59,0,0,1-.69.88,5.73,5.73,0,0,1-1,.78,6,6,0,0,1-1.24.56,4.41,4.41,0,0,1-1.34.21,3.92,3.92,0,0,1-1.73-.35,3.1,3.1,0,0,1-1.15-1,4.07,4.07,0,0,1-.63-1.45,7.79,7.79,0,0,1-.2-1.79,11.64,11.64,0,0,1,.16-1.88,13.29,13.29,0,0,1,.5-2,11.23,11.23,0,0,1,.87-1.9,7.38,7.38,0,0,1,1.25-1.61,5.61,5.61,0,0,1,1.68-1.12,5.18,5.18,0,0,1,2.12-.42,4.18,4.18,0,0,1,2,.46,4.36,4.36,0,0,1,1.5,1.35l.22-1.06c0-.19.18-.32.42-.4a4.22,4.22,0,0,1,1.19-.12,6.19,6.19,0,0,1,.67,0,2.17,2.17,0,0,1,.42.1.39.39,0,0,1,.21.16.35.35,0,0,1,0,.23Zm-1.56-8.87a3.46,3.46,0,0,0-1-1.1,2.34,2.34,0,0,0-1.32-.37,2.09,2.09,0,0,0-1,.26,3,3,0,0,0-.83.72,5.1,5.1,0,0,0-.65,1,8.17,8.17,0,0,0-.45,1.23,9.87,9.87,0,0,0-.27,1.29,8.88,8.88,0,0,0-.09,1.22,4.25,4.25,0,0,0,.08.83,2.19,2.19,0,0,0,.25.64,1.17,1.17,0,0,0,.43.4,1.38,1.38,0,0,0,.64.14,2.45,2.45,0,0,0,1.2-.35,4.72,4.72,0,0,0,1.16-1,6.81,6.81,0,0,0,.94-1.43,7.16,7.16,0,0,0,.6-1.74Z" transform="translate(-0.43 -35.15)"/></svg>