<svg xmlns="http://www.w3.org/2000/svg" viewBox="0 0 316.75 422.3"><defs><style>.cls-1{fill:#fff;}.cls-2{fill:#7e7b88;}.cls-3{fill:#f2d65f;}.cls-4{fill:#0058ad;}.cls-5{fill:#ffcb26;}.cls-6{fill:#043054;}.cls-7{fill:#a8a4b5;}.cls-8{fill:#626166;}.cls-9{fill:#a5212e;}.cls-10{fill:#531117;}.cls-11{fill:#fd4336;}.cls-12{fill:#c6322e;}.cls-13{fill:#7c1923;}</style></defs><title>Quakey About</title><g id="Layer_2" data-name="Layer 2"><g id="Layer_1-2" data-name="Layer 1"><path class="cls-1" d="M258.7,51.42,120.87,20,41.13,64.68,21.25,181.75H300.88S285.29,57.5,258.7,51.42Z"/><polygon class="cls-2" points="152.1 170.68 146.03 137.69 140.31 137.69 143.57 128.16 138.58 124.89 145.34 112.36 138.58 79.94 141.67 63.6 138.58 58.42 117.7 58.42 89.64 86.21 115.55 183.5 137.04 187.82 152.1 170.68"/><polygon class="cls-3" points="117.7 58.42 137.04 187.82 152.1 170.68 146.03 137.69 140.31 137.69 143.57 128.16 138.58 124.89 145.34 112.36 138.58 79.94 141.67 63.6 138.58 58.42 117.7 58.42"/><polygon class="cls-3" points="198.04 182.36 215.43 71.64 187.71 55.7 184.09 175.01 181.84 178.28 198.04 182.36"/><polygon class="cls-4" points="216.9 181.95 191.78 178.08 201.76 114.24 227.06 118.28 216.9 181.95"/><rect class="cls-5" x="203.79" y="121.25" width="7.73" height="10.56" transform="translate(23 -31.68) rotate(9.23)"/><rect class="cls-5" x="213.76" y="122.87" width="7.73" height="10.56" transform="translate(23.39 -33.26) rotate(9.23)"/><rect class="cls-5" x="201.83" y="133.53" width="7.73" height="10.56" transform="translate(24.94 -31.21) rotate(9.23)"/><rect class="cls-5" x="211.8" y="135.15" width="7.73" height="10.56" transform="translate(25.33 -32.79) rotate(9.23)"/><rect class="cls-5" x="199.84" y="145.99" width="7.73" height="10.56" transform="translate(26.92 -30.73) rotate(9.23)"/><rect class="cls-5" x="209.81" y="147.62" width="7.73" height="10.56" transform="translate(27.31 -32.31) rotate(9.23)"/><polygon class="cls-6" points="219.16 182.14 234.05 127.26 227.06 118.28 216.9 181.95 219.16 182.14"/><polygon class="cls-2" points="187.71 173.32 190.43 128.63 187.71 121.07 194.1 116.38 187.71 110.86 194.1 98.19 189.2 66.53 190.91 61.01 187.71 55.7 158.56 70 169.04 115 167.66 119.08 167.91 128.02 171.93 187.82 187.71 179.98 187.71 173.32"/><polygon class="cls-7" points="258.14 274.38 158.75 289.29 46.1 266.09 29.32 181.75 300.88 181.75 258.14 274.38"/><polygon class="cls-2" points="126.28 72.72 129.96 95.47 141.64 94.63 138.58 79.94 139.94 72.72 126.28 72.72"/><polygon class="cls-2" points="190.01 71.77 196.86 73.68 193.01 91.13 190.01 71.77"/><polygon class="cls-2" points="143.3 102.55 131.59 103.37 135.68 128.43 143.57 128.16 138.58 124.89 145.34 112.36 143.3 102.55"/><polygon class="cls-8" points="95.91 92.51 101.78 87.42 101.36 85.66 94.27 91.79 99.72 110.31 100.94 109.62 95.91 92.51"/><polygon class="cls-8" points="105.71 84.81 113.67 77.38 113.34 75.45 104.08 84.1 109.25 105.14 110.55 104.47 105.71 84.81"/><polygon class="cls-2" points="191.34 103.66 195.74 105.14 192.36 114.87 187.71 110.86 191.34 103.66"/><polygon class="cls-2" points="152.1 94.11 149.29 99.56 153.93 102.55 155.83 98.33 152.1 94.11"/><polygon class="cls-2" points="158.56 107.73 155.83 111.81 158.56 113.72 160.19 110.72 158.56 107.73"/><circle class="cls-2" cx="152.65" cy="121.21" r="0.55"/><circle class="cls-2" cx="151.7" cy="109.66" r="0.4"/><circle class="cls-2" cx="159.53" cy="123.27" r="0.97"/><rect class="cls-2" x="152.65" y="127.16" width="1.51" height="1.51"/><rect class="cls-2" x="156.97" y="131.16" width="1.85" height="1.85"/><path class="cls-9" d="M158.75,0a158,158,0,1,0,158,158A158,158,0,0,0,158.75,0Zm0,280.38A122.38,122.38,0,1,1,281.13,158,122.39,122.39,0,0,1,158.75,280.38Z"/><path class="cls-9" d="M245.09,245.28h45.33a0,0,0,0,1,0,0v63.08a2.06,2.06,0,0,1-2.06,2.06H247.15a2.06,2.06,0,0,1-2.06-2.06V245.28a0,0,0,0,1,0,0Z" transform="translate(-113 340.44) rotate(-55.4)"/><polygon class="cls-9" points="249.36 239.65 203.83 212.76 221.13 208.19 162.43 181.75 192.97 203.78 172.03 209.75 210.59 235.42 190.28 244.35 249.36 292.69 249.36 239.65"/><polygon class="cls-10" points="203.83 212.76 203.83 230.92 192.97 223.69 192.97 203.78 162.43 181.75 171.53 181.95 221.13 208.19 203.83 212.76"/><rect class="cls-11" x="80.88" y="123.35" width="32.86" height="58.44" transform="translate(-1.2 0.77) rotate(-0.45)"/><rect class="cls-5" x="85.21" y="129.04" width="6.61" height="9.04" transform="translate(-1.05 0.7) rotate(-0.45)"/><rect class="cls-5" x="85.32" y="142.32" width="6.61" height="9.04" transform="translate(-1.16 0.71) rotate(-0.45)"/><rect class="cls-5" x="85.42" y="155.6" width="6.61" height="9.04" transform="translate(-1.26 0.71) rotate(-0.45)"/><rect class="cls-5" x="93.86" y="128.97" width="6.61" height="9.04" transform="translate(-1.05 0.77) rotate(-0.45)"/><rect class="cls-5" x="93.96" y="142.25" width="6.61" height="9.04" transform="translate(-1.16 0.77) rotate(-0.45)"/><rect class="cls-5" x="94.07" y="155.53" width="6.61" height="9.04" transform="matrix(1, -0.01, 0.01, 1, -1.26, 0.78)"/><rect class="cls-5" x="103.1" y="128.89" width="6.61" height="9.04" transform="translate(-1.05 0.85) rotate(-0.45)"/><rect class="cls-5" x="103.2" y="142.18" width="6.61" height="9.04" transform="translate(-1.16 0.85) rotate(-0.45)"/><rect class="cls-5" x="103.31" y="155.46" width="6.61" height="9.04" transform="translate(-1.26 0.85) rotate(-0.45)"/><polyline class="cls-12" points="80.65 123.48 74.92 133.89 79.51 181.88 81.12 181.92"/><polygon class="cls-13" points="192.97 203.78 192.97 223.69 172.03 209.75 192.97 203.78"/><polygon class="cls-13" points="210.59 235.42 210.08 260.55 190.28 244.35 210.59 235.42"/><polygon class="cls-7" points="102.97 181.75 113.47 174.57 120.92 174.57 126.99 167.11 143.28 162.42 150.74 167.11 154.33 165.73 162.43 181.75 102.97 181.75"/><polygon class="cls-7" points="172.19 182.26 176.24 172.59 182.25 172.59 184.52 169.28 190.74 166.38 197.47 169.9 198.66 176.73 208.75 178.39 228.63 183.91 172.19 182.26"/><path class="cls-9" d="M68.86,404.63q-6.57-6.36-6.57-17.82V358.69H79.52V386.3c0,3.75.67,6.47,2,8.18a7.88,7.88,0,0,0,11.61,0c1.34-1.71,2-4.43,2-8.18V358.69h16.94v28.12q0,11.46-6.57,17.82T87.19,411Q75.43,411,68.86,404.63Z"/><path class="cls-9" d="M147.81,395.31l-19.13,3.34L126.82,408l-17.26,3,13.23-54.2,16.69-2.91,30.8,46.52-17.56,3.06ZM141,383.9l-7.1-11.81-2.68,13.52Z"/><path class="cls-9" d="M185.5,391.76l-4.53,3.6-2.11,12.46L162.15,405l8.53-50.4,16.7,2.82-3.09,18.29L204,360.21l18.5,3.13-23.91,18.77,16.4,31.81-19.66-3.33Z"/><path class="cls-9" d="M262.25,390.06l1.8,12.87L222,408.81l-7.07-50.63L256,352.43l1.8,12.88-24.38,3.4.83,5.93,21.41-3,1.72,12.3-21.41,3,.92,6.65Z"/><path class="cls-9" d="M290.22,392.88,286.43,411l-16.87-3.53,3.83-18.37-12.26-35.61,17.8,3.72,6.61,19.43,13.91-15.15,16.3,3.4Z"/><rect class="cls-9" x="306.41" y="383.9" width="4.31" height="4.31" transform="translate(-159.44 227.23) rotate(-32.62)"/><rect class="cls-9" x="311.65" y="389.76" width="1.23" height="1.23" transform="translate(-161.18 229.9) rotate(-32.62)"/><rect class="cls-9" x="308.57" y="392.22" width="1.23" height="1.23" transform="matrix(0.84, -0.54, 0.54, 0.84, -162.99, 228.63)"/><rect class="cls-9" x="311.34" y="393.14" width="1.85" height="1.85"/><rect class="cls-9" x="309.49" y="396.23" width="0.62" height="0.62" transform="translate(371.13 -102.92) rotate(45)"/><rect class="cls-9" x="312.57" y="397.46" width="0.62" height="1.23"/><rect class="cls-9" x="296.96" y="401.16" width="4.31" height="4.31" transform="translate(333.65 904.25) rotate(-147.38)"/><rect class="cls-9" x="294.81" y="407.01" width="1.23" height="1.23" transform="translate(324.51 910.21) rotate(-147.38)"/><rect class="cls-9" x="297.89" y="409.48" width="1.23" height="1.23" transform="translate(328.86 916.41) rotate(-147.38)"/><rect class="cls-9" x="294.49" y="410.4" width="1.85" height="1.85" transform="translate(590.84 822.65) rotate(-180)"/><rect class="cls-9" x="297.58" y="413.48" width="0.62" height="0.62" transform="translate(801.11 495.75) rotate(135)"/><rect class="cls-9" x="294.49" y="414.71" width="0.62" height="1.23" transform="translate(589.61 830.66) rotate(-180)"/><rect class="cls-9" x="307.64" y="411.02" width="2.47" height="2.47"/><rect class="cls-9" x="311.96" y="415.33" width="1.23" height="1.23"/><circle class="cls-9" cx="307.64" cy="417.8" r="0.62"/><rect class="cls-9" x="310.11" y="420.88" width="1.23" height="1.23" transform="translate(187.18 -87.37) rotate(22.75)"/><path class="cls-9" d="M67.26,381.63a32.59,32.59,0,0,1-2.57,12.91,34.36,34.36,0,0,1-7.08,10.61l4,5.7-12.77,8.82-4.32-6.16a35.69,35.69,0,0,1-5.28,1.29,32.85,32.85,0,0,1-5.56.46,32.46,32.46,0,0,1-13.09-2.66A34,34,0,0,1,2.67,394.72a33.42,33.42,0,0,1,0-26.18,34,34,0,0,1,17.87-17.88A32.46,32.46,0,0,1,33.63,348a32.46,32.46,0,0,1,13.09,2.66A34.07,34.07,0,0,1,64.6,368.54,32.49,32.49,0,0,1,67.26,381.63Zm-33.63,18.1a7.84,7.84,0,0,0,1.38-.09l-7.9-11.49L40,379.33l8.55,12.5a16.32,16.32,0,0,0,2.39-4.73,18.12,18.12,0,0,0,.82-5.47,17.43,17.43,0,0,0-1.42-7,18.75,18.75,0,0,0-3.86-5.79,18,18,0,0,0-25.64,0A18.75,18.75,0,0,0,17,374.65a17.43,17.43,0,0,0-1.42,7A17.73,17.73,0,0,0,17,388.71a18,18,0,0,0,9.61,9.6A17.65,17.65,0,0,0,33.63,399.73Z"/></g></g></svg>