<svg xmlns="http://www.w3.org/2000/svg" viewBox="0 0 109.19 82.67"><defs><style>.cls-1{font-size:22px;font-family:Roboto-Regular, Roboto;}.cls-1,.cls-2{fill:#fff;}</style></defs><title>about</title><g id="Layer_2" data-name="Layer 2"><g id="Layer_1-2" data-name="Layer 1"><text class="cls-1" transform="translate(25.32 67.58)">About</text><path class="cls-2" d="M77.87,35,75,33.43l-5.56-3.51,0,0v-.08l-1-.62-6.94-4.16,3-.81L54.25,19.63l5.31,3.89-3.64,1.06,6.71,4.53L59.1,30.69,73.39,41.62a.29.29,0,0,0,.4-.08l4.15-6.12A.29.29,0,0,0,77.87,35Z"/><path class="cls-2" d="M55.43,41.25A20.63,20.63,0,1,1,76.06,20.63,20.64,20.64,0,0,1,55.43,41.25Zm0-35.14A14.52,14.52,0,1,0,70,20.63,14.53,14.53,0,0,0,55.43,6.11Z"/></g></g></svg>