<svg xmlns="http://www.w3.org/2000/svg" viewBox="0 0 109.19 83.01"><defs><style>.cls-1{fill:none;stroke:#fff;stroke-miterlimit:10;stroke-width:2px;}.cls-2,.cls-3{fill:#fff;}.cls-3{font-size:22px;font-family:Roboto-Regular, Roboto;}</style></defs><title>checklist</title><g id="Layer_2" data-name="Layer 2"><g id="Layer_1-2" data-name="Layer 1"><rect class="cls-1" x="44.67" y="7.01" width="28.31" height="28.31"/><path class="cls-2" d="M77.87,0,79,1.59Q72.2,6.69,63.89,17.31A108.6,108.6,0,0,0,51.21,37.15l-2.34,1.59a38.38,38.38,0,0,0-4,3,51.61,51.61,0,0,0-1.81-4.88l-.89-2.06a32,32,0,0,0-3.53-6.56A8,8,0,0,0,35,25.42q3.43-3.62,6.28-3.61,2.45,0,5.42,6.63l1,2.21A92.73,92.73,0,0,1,61.45,13.09,77.29,77.29,0,0,1,77.87,0Z"/><text class="cls-3" transform="translate(3.94 67.93)">Checklists</text></g></g></svg>