<svg xmlns="http://www.w3.org/2000/svg" viewBox="0 0 109.19 83"><defs><style>.cls-1{font-size:18px;font-family:Roboto-Regular, Roboto;}.cls-1,.cls-2{fill:#fff;}</style></defs><title>Intensities_1</title><g id="Layer_2" data-name="Layer 2"><g id="Layer_1-2" data-name="Layer 1"><text class="cls-1" transform="translate(13.15 64.92)">Intensities</text><path class="cls-2" d="M93.46,42c-2.07,0-3-3.42-3.87-6.72-.76-2.83-1.54-5.76-2.82-5.76S84.71,32.45,84,35.27C83.06,38.58,82.14,42,80.07,42s-2.81-5.27-3.9-13.86c-.63-5-1.6-12.65-2.8-12.65s-2.16,7.61-2.79,12.65C69.49,36.73,68.72,42,66.68,42c-2.33,0-3-7.56-3.9-20.93C62.26,13.73,61.41,1.45,60,1.45c-1.2.38-2.19,12.43-2.79,19.63C56,35.62,55.26,42,53.29,42V40.55h0c1.21-.38,2.21-12.43,2.8-19.63C57.28,6.38,58,0,60,0c2.33,0,3,7.56,3.91,20.93.51,7.34,1.37,19.62,2.79,19.62,1.2,0,2.16-7.61,2.8-12.65C70.56,19.31,71.33,14,73.37,14s2.82,5.27,3.9,13.86c.64,5,1.6,12.65,2.8,12.65s2.06-2.92,2.82-5.75c.89-3.31,1.81-6.73,3.88-6.73s3,3.42,3.87,6.73c.76,2.83,1.55,5.75,2.82,5.75Z"/><rect class="cls-2" x="45.91" width="7.38" height="42"/><rect class="cls-2" x="31.95" y="13.5" width="7.38" height="28.5"/><rect class="cls-2" x="17.98" y="27" width="7.38" height="15"/></g></g></svg>