<svg xmlns="http://www.w3.org/2000/svg" viewBox="0 0 133.47 83"><defs><style>.cls-1{font-size:18px;fill:#fff;font-family:Roboto-Regular, Roboto;}.cls-2{letter-spacing:-0.01em;}.cls-3{letter-spacing:-0.01em;}.cls-4{fill:#f7f7f7;}</style></defs><title>Quakey Bot_1</title><g id="Layer_2" data-name="Layer 2"><g id="Layer_1-2" data-name="Layer 1"><text class="cls-1" transform="translate(21.34 64.92)">Qua<tspan class="cls-2" x="32.09" y="0">k</tspan><tspan class="cls-3" x="41.04" y="0">e</tspan><tspan x="50.46" y="0">y Bot</tspan></text><path class="cls-4" d="M83.63.12A2.54,2.54,0,0,0,81,4.24L79.27,9.58a19.69,19.69,0,0,0-29.65,0L47.91,4.24A2.55,2.55,0,1,0,45.48,5l2.27,7.06a19.71,19.71,0,1,0,33.39,0L83.4,5a2.54,2.54,0,0,0,.23-4.9Zm-15,35.15H59.7a1,1,0,1,1,0-1.91h8.9a1,1,0,0,1,0,1.91Zm5.14-7.71H55.15a6.92,6.92,0,1,1,0-13.83H73.74a6.92,6.92,0,0,1,0,13.83Z"/><path class="cls-4" d="M54.83,17.16a3.9,3.9,0,1,0,3.89,3.9A3.91,3.91,0,0,0,54.83,17.16Z"/><path class="cls-4" d="M73.23,17.16a3.9,3.9,0,1,0,3.89,3.9A3.91,3.91,0,0,0,73.23,17.16Z"/></g></g></svg>