<svg xmlns="http://www.w3.org/2000/svg" viewBox="0 0 109.19 66.68"><defs><style>.cls-1{font-size:22px;font-family:Roboto-Regular, Roboto;}.cls-1,.cls-2{fill:#fff;}</style></defs><title>Settings</title><g id="Layer_2" data-name="Layer 2"><g id="Layer_1-2" data-name="Layer 1"><text class="cls-1" transform="translate(14.47 51.6)">Settings</text><path class="cls-2" d="M42.46,4.58A8.52,8.52,0,0,0,35,0H33.22a8.52,8.52,0,0,0-7.43,4.58l-.38.72h9.4V16.38h-9.4l.38.71a8.51,8.51,0,0,0,7.43,4.59H35a8.51,8.51,0,0,0,7.43-4.59l.9-1.67A10.35,10.35,0,0,0,44,13.84a83.17,83.17,0,0,0,21.15,0,9.43,9.43,0,0,0,.66,1.58l.9,1.67a8.49,8.49,0,0,0,7.43,4.59H76a8.48,8.48,0,0,0,7.42-4.59l.39-.71h-9.4V5.3h9.4l-.39-.72A8.49,8.49,0,0,0,76,0H74.16a8.49,8.49,0,0,0-7.43,4.58l-.9,1.68a9,9,0,0,0-.66,1.57A84.1,84.1,0,0,0,44,7.83a9.84,9.84,0,0,0-.66-1.57Z"/></g></g></svg>